<svg width="0" height="0" class="hidden">
  <symbol xmlns="http://www.w3.org/2000/svg" xmlns:xlink="http://www.w3.org/1999/xlink" fill="none" viewBox="0 0 40 24" id="arrow">
    <rect width="40.000000" height="24.000000" x="0.000000" y="0.000000" transform="matrix(-1,0,0,1,40,0)"></rect>
    <path id="Vector 186" d="M0 38.8916L38.8918 0M24.767 0L38.8918 0L38.8918 14.1248" stroke="rgb(239,243,245)" stroke-width="4" transform="matrix(-0.707107,0.707107,0.707107,0.707107,31.5,-15.501)"></path>
  </symbol>
  <symbol xmlns="http://www.w3.org/2000/svg" xmlns:xlink="http://www.w3.org/1999/xlink" fill="none" customFrame="#000000" viewBox="0 0 41 9" id="hero-section-decor-el-1">
    <path d="M4.5 0C5.56514 0 6.54385 0.370066 7.31457 0.988639C8.8805 2.24544 10.4921 4 12.5 4C14.5079 4 16.1195 2.24544 17.6854 0.98864C18.4561 0.370066 19.4349 0 20.5 0C21.5651 0 22.5439 0.370067 23.3146 0.988641C24.8805 2.24544 26.4921 4 28.5 4C30.5079 4 32.1195 2.24544 33.6854 0.988638C34.4562 0.370066 35.4349 0 36.5 0C38.9853 0 41 2.01472 41 4.5C41 6.98528 38.9853 9 36.5 9C35.4349 9 34.4561 8.62993 33.6854 8.01136C32.1195 6.75456 30.5079 5 28.5 5C26.4921 5 24.8805 6.75456 23.3146 8.01136C22.5439 8.62993 21.5651 9 20.5 9C19.4349 9 18.4561 8.62993 17.6854 8.01136C16.1195 6.75456 14.5079 5 12.5 5C10.4921 5 8.8805 6.75456 7.31457 8.01136C6.54385 8.62993 5.56514 9 4.5 9C2.01472 9 0 6.98528 0 4.5C0 2.01472 2.01472 0 4.5 0Z" fill="rgb(10,15,19)" fill-rule="evenodd"></path>
  </symbol>
  <symbol xmlns="http://www.w3.org/2000/svg" xmlns:xlink="http://www.w3.org/1999/xlink" fill="none" customFrame="#000000" viewBox="0 0 22 22" id="hero-section-decor-el-2">
    <rect width="22.000000" height="22.000000" x="0.000000" y="0.000000"></rect>
    <path d="M8.10035 0C9.6793 0 10.9593 1.27999 10.9593 2.85895C10.9593 3.50988 10.7418 4.10996 10.3754 4.5905C9.60735 5.59793 8.49027 6.61201 8.35267 7.84804C9.58869 7.71043 10.6028 6.59336 11.6102 5.8253C12.0907 5.45895 12.6908 5.2414 13.3418 5.2414C14.9207 5.2414 16.2007 6.5214 16.2007 8.10035C16.2007 9.6793 14.9207 10.9593 13.3418 10.9593C12.6908 10.9593 12.0907 10.7418 11.6102 10.3754C10.6028 9.60735 9.58871 8.49029 8.3527 8.35267C8.49042 9.5886 9.60739 10.6027 10.3754 11.6101C10.7417 12.0906 10.9593 12.6908 10.9593 13.3418C10.9593 14.9207 9.6793 16.2007 8.10035 16.2007C6.5214 16.2007 5.2414 14.9207 5.2414 13.3418C5.2414 12.6908 5.45896 12.0906 5.82534 11.6101C6.59331 10.6027 7.71027 9.58861 7.84801 8.3527C6.61209 8.49044 5.59803 9.6074 4.59064 10.3754C4.11005 10.7417 3.50991 10.9593 2.85895 10.9593C1.27999 10.9593 0 9.6793 0 8.10035C0 6.5214 1.27999 5.2414 2.85895 5.2414C3.50991 5.2414 4.11005 5.45896 4.59064 5.82534C5.59804 6.59331 6.61211 7.71028 7.84803 7.84801C7.71042 6.61199 6.59335 5.59792 5.8253 4.5905C5.45895 4.10996 5.2414 3.50988 5.2414 2.85895C5.2414 1.27999 6.5214 0 8.10035 0Z" fill="rgb(10,15,19)" fill-rule="evenodd" transform="matrix(0.707107,0.707107,-0.707107,0.707107,10.8516,-0.308289)"></path>
  </symbol>
  <symbol fill="none" xmlns="http://www.w3.org/2000/svg" viewBox="0 0 8 13" id="more-button-arrow">
    <path d="M4 0.249878C3.58579 0.249878 3.25 0.585664 3.25 0.999878V9.0946L1.54883 7.26648C1.26667 6.96354 0.792397 6.94651 0.489258 7.22839C0.186098 7.51065 0.168919 7.98578 0.451172 8.28894L3.45117 11.5106L4 12.1005L4.54883 11.5106L7.54883 8.28894C7.83108 7.98578 7.8139 7.51065 7.51074 7.22839C7.2076 6.94651 6.73333 6.96354 6.45117 7.26648L4.75 9.0946V0.999878C4.75 0.585665 4.41421 0.249879 4 0.249878Z" fill="#0A0F13"></path>
  </symbol>
  <symbol xmlns="http://www.w3.org/2000/svg" xmlns:xlink="http://www.w3.org/1999/xlink" fill="currentColor" customFrame="#000000" viewBox="0 0 24 24" id="tiktok">
    <path d="M15.7547 8.56637C15.6768 8.52451 15.601 8.47862 15.5275 8.42888C15.3139 8.282 15.1181 8.10893 14.9442 7.9134C14.5091 7.39568 14.3467 6.87046 14.2868 6.50273L14.2892 6.50273C14.2392 6.19749 14.2599 6 14.263 6L12.2815 6L12.2815 13.9691C12.2815 14.0761 12.2815 14.1818 12.2772 14.2863C12.2772 14.2993 12.2759 14.3113 12.2752 14.3253C12.2752 14.3311 12.2752 14.3371 12.274 14.3431C12.274 14.3446 12.274 14.3461 12.274 14.3476C12.2531 14.6335 12.165 14.9097 12.0174 15.1519C11.8698 15.3941 11.6672 15.5949 11.4275 15.7365C11.1776 15.8843 10.8951 15.9619 10.6076 15.9615C9.68438 15.9615 8.93613 15.1785 8.93613 14.2116C8.93613 13.2446 9.68438 12.4617 10.6076 12.4617C10.7824 12.4615 10.9561 12.4901 11.1222 12.5464L11.1246 10.448C10.6202 10.3803 10.1077 10.422 9.61957 10.5705C9.13141 10.719 8.67814 10.9711 8.28836 11.311C7.94682 11.6196 7.65969 11.9879 7.43989 12.3992C7.35624 12.5492 7.04065 13.1519 7.00243 14.1301C6.97839 14.6853 7.13872 15.2605 7.21515 15.4983L7.21515 15.5033C7.26322 15.6433 7.4495 16.121 7.75308 16.5237C7.99787 16.8468 8.28708 17.1306 8.61141 17.3659L8.61141 17.3609L8.61621 17.3659C9.57549 18.0439 10.6391 17.9994 10.6391 17.9994C10.8232 17.9917 11.44 17.9994 12.1404 17.6542C12.9172 17.2714 13.3595 16.7012 13.3595 16.7012C13.642 16.3605 13.8667 15.9722 14.0239 15.553C14.2032 15.0628 14.263 14.4748 14.263 14.2398L14.263 10.012C14.287 10.027 14.6072 10.2473 14.6072 10.2473C14.6072 10.2473 15.0685 10.5548 15.7881 10.755C16.3044 10.8975 17 10.9275 17 10.9275L17 8.88161C16.7563 8.90911 16.2614 8.82911 15.7547 8.56637Z"  fill-rule="nonzero"></path>
  </symbol>
  <symbol xmlns="http://www.w3.org/2000/svg" xmlns:xlink="http://www.w3.org/1999/xlink" fill="currentColor" customFrame="#000000" viewBox="0 0 24 24" id="facebook">
    <path d="M13.9046 7.9925L15 7.9925L15 6.0845C14.811 6.0585 14.1611 6 13.4041 6C11.8248 6 10.7429 6.9935 10.7429 8.8195L10.7429 10.5L9 10.5L9 12.633L10.7429 12.633L10.7429 18L12.8797 18L12.8797 12.6335L14.552 12.6335L14.8175 10.5005L12.8792 10.5005L12.8792 9.031C12.8797 8.4145 13.0457 7.9925 13.9046 7.9925Z"  fill-rule="nonzero"></path>
  </symbol>
  <symbol xmlns="http://www.w3.org/2000/svg" xmlns:xlink="http://www.w3.org/1999/xlink" fill="currentColor" customFrame="#000000" viewBox="0 0 24 24" id="youtube">
    <path d="M17.9117 9.62417L17.9111 9.61873C17.9009 9.52309 17.7998 8.67237 17.3821 8.23967C16.8994 7.73072 16.3521 7.66889 16.0889 7.63925C16.0671 7.6368 16.0471 7.63453 16.0293 7.63218L16.0083 7.63C14.4219 7.51577 12.026 7.50018 12.0021 7.50009L12 7.5L11.9978 7.50009C11.9739 7.50018 9.57804 7.51577 7.97734 7.63L7.95619 7.63218C7.93916 7.63444 7.9204 7.63653 7.89998 7.63889C7.63979 7.66862 7.09835 7.73054 6.61422 8.25789C6.21643 8.68597 6.10144 9.51846 6.08963 9.61202L6.08826 9.62417C6.08469 9.66397 6 10.6114 6 11.5626L6 12.4517C6 13.4029 6.08469 14.3504 6.08826 14.3902L6.0889 14.3962C6.09906 14.4903 6.20013 15.3255 6.61587 15.7583C7.06979 16.2502 7.64373 16.3153 7.95244 16.3503C8.00124 16.3559 8.04326 16.3606 8.07191 16.3656L8.09965 16.3694C9.01563 16.4557 11.8875 16.4982 12.0093 16.4999L12.013 16.5L12.0166 16.4999C12.0406 16.4998 14.4363 16.4842 16.0228 16.37L16.0437 16.3678C16.0638 16.3652 16.0863 16.3628 16.111 16.3603C16.3697 16.3331 16.9082 16.2766 17.3857 15.7564C17.7835 15.3283 17.8986 14.4958 17.9103 14.4023L17.9117 14.3902C17.9152 14.3503 18 13.4029 18 12.4517L18 11.5626C17.9999 10.6114 17.9152 9.66406 17.9117 9.62417ZM11.1224 10.2056L13.9146 11.6014C14.0799 11.684 14.1821 11.8421 14.1815 12.0142C14.1807 12.1862 14.0772 12.3437 13.9115 12.4252L11.1191 13.7969C11.0424 13.8346 10.9591 13.8533 10.876 13.8533C10.7853 13.8533 10.6947 13.831 10.613 13.7864C10.4566 13.701 10.3633 13.5506 10.3633 13.3842L10.3633 10.6167C10.3633 10.4495 10.4572 10.2988 10.6147 10.2135C10.772 10.1283 10.9618 10.1254 11.1224 10.2056Z"  fill-rule="evenodd"></path>
  </symbol>
  <symbol xmlns="http://www.w3.org/2000/svg" xmlns:xlink="http://www.w3.org/1999/xlink" fill="currentColor" customFrame="#000000" viewBox="0 0 24 24" id="instagram">
    <path d="M12.0022 6C10.4384 6 10.2386 6.00676 9.61947 6.03396C8.9845 6.06195 8.53745 6.16547 8.1459 6.31751C7.72724 6.47584 7.35141 6.71959 7.03865 7.03914C6.72214 7.35123 6.47607 7.72893 6.31972 8.14356C6.16781 8.53679 6.0643 8.98114 6.03627 9.61608C6.00676 10.2376 6 10.438 6 12.0011C6 13.5647 6.00677 13.7645 6.03396 14.3835C6.06196 15.0184 6.1655 15.4653 6.31767 15.8569C6.47633 16.2762 6.72254 16.6516 7.039 16.9635C7.35118 17.2801 7.72908 17.5263 8.144 17.6826C8.53737 17.8345 8.9819 17.938 9.61724 17.966C10.2363 17.9933 10.4362 18 12 18C13.5639 18 13.7637 17.9933 14.3828 17.966C15.0183 17.938 15.4655 17.8345 15.8573 17.6821C16.6954 17.3581 17.3581 16.6954 17.6822 15.8575C17.8342 15.464 17.938 15.0192 17.966 14.3835C17.9932 13.7644 18 13.5647 18 12.0011C18 10.4391 17.9977 10.2385 17.9705 9.61877C17.9425 8.98395 17.8391 8.53701 17.6869 8.1454C17.5285 7.72692 17.2848 7.35116 16.9652 7.03847C16.653 6.72204 16.2753 6.47591 15.8605 6.31966C15.4673 6.16778 15.0228 6.06429 14.3877 6.03626C13.7661 6.00676 13.5657 6 12.0022 6ZM16.9652 7.03847L16.9668 7.04016L16.7911 7.21316L16.9634 7.0368L16.9652 7.03847ZM7.039 16.9635L7.03766 16.9621L7.21339 16.7891L7.04035 16.9648L7.039 16.9635ZM7.03865 7.03914L7.04035 7.03747L7.21339 7.21316L7.03698 7.04084L7.03865 7.03914ZM15.474 7.2627C14.7765 7.2627 14.2109 7.82813 14.2109 8.52585C14.2109 9.22343 14.7765 9.78901 15.474 9.78901C16.1717 9.78901 16.7373 9.22346 16.7373 8.52585C16.7373 7.8281 16.1716 7.2627 15.474 7.2627ZM12.0003 9.1582C10.4313 9.1582 9.1582 10.4312 9.1582 12.0003C9.1582 13.5694 10.4313 14.8424 12.0003 14.8424C13.5694 14.8424 14.8424 13.5694 14.8424 12.0003C14.8424 10.4312 13.5694 9.1582 12.0003 9.1582Z" fill-rule="evenodd"></path>
  </symbol>
  <symbol xmlns="http://www.w3.org/2000/svg" xmlns:xlink="http://www.w3.org/1999/xlink" fill="none" customFrame="#000000" viewBox="0 0 14.0004 14.0002" id="phone">
    <rect width="14.000000" height="14.000000" x="0.000000" y="0.000000"></rect>
    <path d="M12.5938 0.000976562C12.7891 0.00119804 12.9824 0.0413399 13.1611 0.120117C13.3398 0.198894 13.5001 0.314051 13.6318 0.458008C13.7636 0.602073 13.8644 0.772173 13.9268 0.957031C13.9891 1.14187 14.0117 1.33798 13.9941 1.53223C13.7631 3.70364 13.0226 5.79037 11.833 7.62305C10.7523 9.32036 9.31008 10.7593 7.60938 11.8379C5.7814 13.0209 3.70108 13.7602 1.53516 13.9951C1.33991 14.0127 1.14274 13.9894 0.957031 13.9268C0.771343 13.8641 0.600499 13.7631 0.456055 13.6309C0.311683 13.4986 0.196668 13.3374 0.118164 13.1582C0.0396822 12.979 -0.000775992 12.7854 0 12.5898L0 10.4824C-0.00856578 10.1379 0.11075 9.80201 0.333984 9.53906C0.557177 9.27622 0.869109 9.10383 1.21094 9.05566C1.88674 8.96671 2.55081 8.80229 3.18945 8.56445C3.44135 8.47 3.71534 8.44887 3.97852 8.50488C4.24166 8.56094 4.48348 8.69204 4.6748 8.88086L5.56836 9.77246C7.33061 8.7724 8.78994 7.31637 9.79199 5.55762L8.89746 4.66504C8.70848 4.47418 8.57861 4.23312 8.52246 3.9707C8.46632 3.70798 8.48635 3.43407 8.58105 3.18262C8.81931 2.54534 8.9851 1.88333 9.07422 1.20898C9.12203 0.871385 9.29078 0.56216 9.5498 0.339844C9.80874 0.117655 10.14 -0.00231005 10.4814 0.000976562L12.5938 0.000976562Z" fill="rgb(10,15,19)" fill-rule="nonzero" transform="matrix(-1,0,0,1,14,-0.000488281)"></path>
  </symbol>
</svg>